# xmcd
#
# Track frame offsets:
# 150
# 31667
# 49110
# 77485
# 101475
# 133275
# 157637
# 184140
# 215352
# 242277
# 270647
# 295887
#
# Disc length: 4147 seconds
#
#
# Revision: 0
# Processed by: cddbd v1.5.1PL0 Copyright (c) Steve Scherf et al.
# Submitted via: FreeRIP 2.942 
#
DISCID=9610310c
DTITLE=Sonny Moorman - L-I-V-E
DYEAR=1900
DGENRE=Blues
TTITLE0=Maybelline
TTITLE1=Sonny's Blues
TTITLE2=Slow Blues
TTITLE3=Going Down
TTITLE4=Roadhouse Blues
TTITLE5=Baby What You Want Me To Do
TTITLE6=Bring It On Home To Me
TTITLE7=Walkin' The Dog
TTITLE8=CC Rider
TTITLE9=Treat Her Right
TTITLE10=Rock Me
TTITLE11=Telegraph Road
EXTD=
EXTT0=
EXTT1=
EXTT2=
EXTT3=
EXTT4=
EXTT5=
EXTT6=
EXTT7=
EXTT8=
EXTT9=
EXTT10=
EXTT11=
PLAYORDER=
